<svg width="138" height="50" viewBox="0 0 138 50" fill="none" xmlns="http://www.w3.org/2000/svg">
<path d="M0.25 10.247C5.71232 10.1163 10.1163 5.71232 10.247 0.25H127.753C127.884 5.71232 132.288 10.1163 137.75 10.247V39.753C132.288 39.8837 127.884 44.2877 127.753 49.75H10.247C10.1163 44.2877 5.71232 39.8837 0.25 39.753V10.247Z" stroke="white" stroke-width="0.5"/>
<path d="M3.1 7.0988C5.28493 7.0465 7.0465 5.28493 7.0988 3.1H130.901C130.953 5.28493 132.715 7.0465 134.9 7.0988V42.9012C132.715 42.9535 130.953 44.7151 130.901 46.9H7.0988C7.0465 44.7151 5.28493 42.9535 3.1 42.9012V7.0988Z" stroke="white" stroke-width="0.2"/>
<path d="M37.5034 13.9898H39.4834V17.237H37.5034V23.5136H34.1572V11H37.5034V13.9898ZM33.3652 20.0288C32.494 20.405 30.91 20.6228 29.326 20.6228H22V11.099H25.4056V17.7518H29.4646C30.9892 17.7518 32.4742 17.5538 33.3652 17.1974V20.0288ZM25.9798 21.791V24.8996H37.741V27.9092H22.5742V21.791H25.9798Z" fill="white"/>
<path d="M53.5397 11H56.7077V27.9092H53.5397V20.3852H52.0151V27.6122H48.8867V11.0792H52.0151V17.2172H53.5397V11ZM40.1153 14.4056V11.396H47.5403V16.445C47.5403 23.6126 44.1149 27.0578 40.1153 27.1172V23.9888C42.6695 23.7908 44.3327 21.3158 44.3327 16.5638V14.4056H40.1153Z" fill="white"/>
<path d="M74.0112 13.376H75.9912V16.4252H74.0112V19.4744H70.665V11H74.0112V13.376ZM68.8236 11.198V19.118H58.5078V11.198H61.755V12.584H65.5764V11.198H68.8236ZM61.755 16.5242H65.5764V15.1184H61.755V16.5242ZM62.3886 25.0184V25.6718H74.1894V27.9092H59.1018V22.9592H70.7244V22.3058H59.0622V20.0684H74.0112V25.0184H62.3886Z" fill="white"/>
<path d="M94.1515 11H97.4977V27.9092H94.1515V11ZM89.1025 14.465C89.0629 15.9896 88.9243 17.3954 88.6867 18.6824L93.5971 25.058L90.9439 27.038L87.5383 22.4048C86.1721 25.4144 84.0139 27.0974 81.4399 27.1172V23.7512C83.9149 23.474 85.6177 19.8902 85.7365 14.465H81.9151V11.396H92.7259V14.465H89.1025Z" fill="white"/>
<path d="M112.544 11H115.831V21.0584H112.544V19.514H110.485L110.683 16.6034H112.544V15.1184H110.683L110.485 12.2078H112.544V11ZM110.128 15.8708C110.128 18.722 107.95 20.7218 104.723 20.7218C101.496 20.7218 99.3176 18.722 99.3176 15.8708C99.3176 13.0394 101.496 11.0198 104.723 11.0198C107.95 11.0198 110.128 13.0394 110.128 15.8708ZM102.624 15.8708C102.624 17.1776 103.456 17.9696 104.723 17.9696C105.891 17.9696 106.822 17.1776 106.822 15.8708C106.822 14.564 105.97 13.772 104.723 13.772C103.456 13.772 102.624 14.564 102.624 15.8708ZM100.822 24.5234V21.6524H115.831V28.1072H112.425V24.5234H100.822Z" fill="white"/>
<path d="M22 38.9796V32.7228H24.0513C26.2768 32.7228 27.4886 33.9821 27.4886 35.8591C27.4886 37.7362 26.2768 38.9796 24.0513 38.9796H22ZM22.3406 38.6628H24.075C25.9838 38.6628 27.148 37.649 27.148 35.8591C27.148 34.0692 25.9838 33.0396 24.075 33.0396H22.3406V38.6628Z" fill="white"/>
<path d="M38.1054 38.9796V32.7228H42.3743V33.0396H38.446V35.6294H42.0971V35.9462H38.446V38.6628H42.4456V38.9796H38.1054Z" fill="white"/>
<path d="M58.1046 32.7228H58.4689L55.6732 38.9796H55.3009L52.5052 32.7228H52.8774L55.491 38.5915L58.1046 32.7228Z" fill="white"/>
<path d="M80.4122 32.7228H80.7527V38.6628H84.4434V38.9796H80.4122V32.7228Z" fill="white"/>
<path d="M99.9577 38.9796L99.1816 37.158H95.6968L94.9206 38.9796H94.5484L97.2333 32.7228H97.6372L100.322 38.9796H99.9577ZM95.8393 36.8412H99.039L97.4392 33.095L95.8393 36.8412Z" fill="white"/>
<path d="M110.674 38.9796V32.7228H113.098C114.468 32.7228 115.244 33.3485 115.244 34.3464C115.244 35.0513 114.753 35.677 114.08 35.7878C114.887 35.8908 115.545 36.4214 115.545 37.3243C115.545 38.3302 114.729 38.9796 113.335 38.9796H110.674ZM111.015 35.669H113.105C114.246 35.669 114.903 35.2097 114.903 34.3464C114.903 33.491 114.246 33.0317 113.105 33.0317H111.015V35.669ZM111.015 38.6707H113.343C114.491 38.6707 115.204 38.2034 115.204 37.3243C115.204 36.4452 114.491 35.9779 113.343 35.9779H111.015V38.6707Z" fill="white"/>
</svg>
